<svg width="80" height="88" viewBox="0 0 80 88" fill="none" xmlns="http://www.w3.org/2000/svg">
<g clip-path="url(#clip0_1460_88)">
<path d="M52.015 71.421C52.568 80.823 58.277 86.538 68.222 86.538C76.878 86.538 78.808 82.814 79.795 81.801C79.795 81.801 78.272 83.589 71.537 83.424C67.671 83.328 66.565 79.717 66.565 74.371V26.255C66.565 10.217 57.54 1 35.256 1C15.918 1 5.42 7.821 5.42 17.96C5.42 25.334 11.129 29.942 19.417 29.942C23.285 29.942 27.166 26.933 27.166 26.933C19.65 26.494 15.942 23.49 15.942 17.407C15.942 7.636 24.021 3.396 35.256 3.396C47.411 3.396 50.358 9.295 50.358 20.172V39.529H48.516C26.231 39.529 1 45.981 1 65.891C1 81.191 14.076 86.538 25.863 86.538C39.492 86.538 47.963 78.611 51.647 71.421H52.015ZM50.358 65.891C50.358 70.131 46.306 75.477 41.149 79.164C37.466 81.745 33.23 83.404 29.178 83.404C22.364 83.404 18.496 78.426 18.496 66.259C18.496 56.12 21.811 49.852 27.889 46.35C32.677 43.584 39.123 42.294 47.043 42.294H50.358V65.891Z" fill="black"/>
</g>
<defs>
<clipPath id="clip0_1460_88">
<rect width="80" height="88" fill="white"/>
</clipPath>
</defs>
</svg>
