<svg width="60" height="60" viewBox="0 0 60 60" fill="none" xmlns="http://www.w3.org/2000/svg">
<rect width="60" height="60" fill="#292929"/>
<g clip-path="url(#clip0_1434_13)">
<path d="M20.0582 40.2213C14.3211 40.2213 10 35.6806 10 30.0747C10 24.4502 14.1005 19.8721 20.0582 19.8721C23.2209 19.8721 25.409 20.8438 27.1191 23.0675L24.3609 25.3659C23.2025 24.1326 21.805 23.5159 20.0582 23.5159C16.1783 23.5159 14.0453 26.487 14.0453 30.0747C14.0453 33.6625 16.3806 36.5776 20.0582 36.5776C21.7866 36.5776 23.2577 35.961 24.4161 34.7277L27.1375 37.1194C25.501 39.2496 23.2577 40.2213 20.0582 40.2213Z" fill="white"/>
<path d="M39.7403 25.2538H43.4546V39.8289H39.7403V37.6987C38.968 39.2123 37.6808 40.2213 35.2169 40.2213C31.2819 40.2213 28.1375 36.8018 28.1375 32.5974C28.1375 28.393 31.2819 24.9735 35.2169 24.9735C37.6625 24.9735 38.968 25.9825 39.7403 27.4961V25.2538ZM39.8506 32.5974C39.8506 30.3177 38.2876 28.4304 35.8237 28.4304C33.4516 28.4304 31.907 30.3363 31.907 32.5974C31.907 34.8023 33.4516 36.7644 35.8237 36.7644C38.2693 36.7644 39.8506 34.8584 39.8506 32.5974Z" fill="white"/>
<path d="M44.4546 19.7786H48.1689V40.2213H44.4546V19.7786Z" fill="white"/>
</g>
<defs>
<clipPath id="clip0_1434_13">
<rect width="40" height="20.4427" fill="white" transform="translate(10 19.7786)"/>
</clipPath>
</defs>
</svg>
