<svg width="32" height="32" fill-rule="evenodd" clip-rule="evenodd" viewBox="0 0 32 32" class="tw-icon" fill="none" xmlns="http://www.w3.org/2000/svg"><path fill="#FFFBEF" d="M4.32 32C1.547 27.632 0 21.93 0 16S1.547 4.368 4.32 0v32z"></path><path fill="url(#paint0_linear_646_4939)" d="M4.32 32C1.547 27.632 0 21.93 0 16S1.547 4.368 4.32 0v32z"></path><path fill="#FFFBEF" d="M32 32a16 16 0 110-32v32z"></path><path fill="url(#paint1_linear_646_4939)" d="M32 32a16 16 0 110-32v32z"></path><path fill="#FFFBEF" d="M9.646 28.078A15.92 15.92 0 0015.36 32V0a15.92 15.92 0 00-5.714 3.922C6.646 7.126 4.96 11.47 4.96 16c0 4.53 1.686 8.874 4.686 12.078z"></path><path fill="url(#paint2_linear_646_4939)" d="M9.646 28.078A15.92 15.92 0 0015.36 32V0a15.92 15.92 0 00-5.714 3.922C6.646 7.126 4.96 11.47 4.96 16c0 4.53 1.686 8.874 4.686 12.078z"></path><defs><linearGradient id="paint0_linear_646_4939" x1="25" x2="34" y1="39" y2="3" gradientUnits="userSpaceOnUse"><stop stop-color="#FF00D6"></stop><stop offset="1" stop-color="#FFF500" stop-opacity="0"></stop></linearGradient><linearGradient id="paint1_linear_646_4939" x1="25" x2="34" y1="39" y2="3" gradientUnits="userSpaceOnUse"><stop stop-color="#FF00D6"></stop><stop offset="1" stop-color="#FFF500" stop-opacity="0"></stop></linearGradient><linearGradient id="paint2_linear_646_4939" x1="25" x2="34" y1="39" y2="3" gradientUnits="userSpaceOnUse"><stop stop-color="#FF00D6"></stop><stop offset="1" stop-color="#FFF500" stop-opacity="0"></stop></linearGradient></defs></svg>