<svg width="20" height="21" viewBox="0 0 20 21" fill="none" xmlns="http://www.w3.org/2000/svg">
<path d="M18.332 12.314C17.002 11.414 15.198 11.763 14.297 13.095C14.294 13.099 14.291 13.105 14.287 13.109C14.276 13.125 14.266 13.14 14.257 13.156H14.255C13.419 14.363 12.028 15.154 10.451 15.154C7.893 15.154 5.819 13.07 5.819 10.5C5.819 7.93 7.893 5.846 10.451 5.846C12.047 5.846 13.454 6.656 14.286 7.89C14.29 7.895 14.294 7.901 14.298 7.907C15.198 9.238 17.002 9.587 18.332 8.686C19.664 7.783 20.015 5.967 19.115 4.628C19.109 4.618 19.102 4.61 19.096 4.6C17.215 1.823 14.045 0 10.451 0C4.679 0 0 4.701 0 10.5C0 16.299 4.679 21 10.451 21C14.035 21 17.198 19.188 19.081 16.426L19.079 16.424C19.09 16.408 19.103 16.391 19.115 16.371C20.014 15.033 19.663 13.217 18.332 12.314Z" fill="#0066FF"/>
</svg>
