<svg xmlns="http://www.w3.org/2000/svg" width="60" height="100" fill="currentColor" viewBox="0 0 22 38"><g clip-path="url(#a)"><path d="M0 46.14V13.57h21.71V19H6.8v8.14h13.57v5.43H6.79v13.57H0ZM125.07 4.07c0-.34.09-.65.25-.92.17-.29.4-.5.67-.67.28-.17.59-.25.93-.25a1.78 1.78 0 0 1 1.44.72c.17.22.27.47.3.75h-.9a.7.7 0 0 0-.29-.44.92.92 0 0 0-.55-.18.94.94 0 0 0-.5.14c-.14.09-.26.2-.35.36a.94.94 0 0 0-.13.49.97.97 0 0 0 .48.85c.15.1.32.14.5.14.2 0 .38-.06.53-.17a.73.73 0 0 0 .28-.45h.9c-.04.28-.14.53-.3.76a1.67 1.67 0 0 1-1.41.71 1.8 1.8 0 0 1-.93-.24c-.28-.17-.5-.4-.67-.67a1.8 1.8 0 0 1-.25-.93Zm1.82 3.4a3.32 3.32 0 0 1-2.4-1 3.28 3.28 0 0 1-1-2.4 3.33 3.33 0 0 1 1-2.4 3.4 3.4 0 0 1 3.72-.73 3.36 3.36 0 0 1 1.8 1.81 3.33 3.33 0 0 1 .02 2.64 3.44 3.44 0 0 1-1.82 1.81c-.4.18-.85.26-1.32.26Zm0-.97a2.39 2.39 0 0 0 1.73-.7 2.4 2.4 0 0 0 .51-2.67 2.46 2.46 0 0 0-2.24-1.49 2.36 2.36 0 0 0-1.71.71 2.46 2.46 0 0 0-.53 2.67 2.45 2.45 0 0 0 2.24 1.48ZM0 1.36h21.71v5.43H0zm115.36 44.78V21.71h"></path></g><defs><clipPath id="a"><path d="M0 0h131v38H0z"></path></clipPath></defs></svg>