<svg width="65" height="72" viewBox="0 0 65 72" fill="none" xmlns="http://www.w3.org/2000/svg">
<path fill-rule="evenodd" clip-rule="evenodd" d="M35.0795 0.849279L48.1158 8.30406L61.1521 15.806C63.0483 16.8912 64.1861 18.8257 64.1861 20.9961V36V50.9567C64.1861 53.1743 63.0483 55.0616 61.1521 56.194L48.1158 63.6488L35.0795 71.1507C33.2307 72.2831 31.0027 72.2831 29.1065 71.1507L16.0702 63.6488L3.0339 56.194C1.09031 55.0616 0 53.1743 0 50.9567V36V20.9961C0 18.8257 1.09031 16.8912 3.0339 15.806L16.0702 8.30406L29.1065 0.849279C31.0027 -0.283093 33.2307 -0.283093 35.0795 0.849279ZM42.0954 44.54C42.8539 44.54 43.5176 44.7287 44.1338 45.059L54.231 36L45.6508 28.2621L47.1677 26.6107L56.6487 35.1507C57.0753 35.5754 57.1227 36.2831 56.6961 36.7549L56.6487 36.8021L45.6982 46.6632C45.9826 47.2294 46.1722 47.8899 46.1722 48.5976C46.1722 50.8152 44.3709 52.6081 42.0954 52.6081C39.8674 52.6081 38.066 50.8152 38.066 48.5976C38.066 46.3329 39.8674 44.54 42.0954 44.54ZM19.8152 26.941L9.955 36L18.5353 43.6907L17.0183 45.3421L7.58476 36.8965C7.53736 36.8493 7.48995 36.8021 7.44255 36.7549C7.0159 36.2831 7.06331 35.5754 7.53736 35.1507L18.2508 25.3368C17.9664 24.7706 17.7768 24.1101 17.7768 23.4024C17.7768 21.1848 19.5782 19.3447 21.8536 19.3447C24.0816 19.3447 25.883 21.1848 25.883 23.4024C25.883 25.6199 24.0816 27.46 21.8536 27.46C21.0951 27.46 20.4315 27.2713 19.8152 26.941ZM41.6214 27.8847L25.4564 46.7575C25.7408 47.2765 25.883 47.9371 25.883 48.5976C25.883 50.8152 24.0816 52.6081 21.8536 52.6081C19.5782 52.6081 17.7768 50.8152 17.7768 48.5976C17.7768 46.3329 19.5782 44.54 21.8536 44.54C22.0906 44.54 22.3276 44.54 22.5647 44.5872L38.5875 25.8558C38.2556 25.2896 38.066 24.5819 38.066 23.8742C38.066 21.6094 39.8674 19.8165 42.0954 19.8165C44.3709 19.8165 46.1722 21.6094 46.1722 23.8742C46.1722 26.0917 44.3709 27.8847 42.0954 27.8847C41.9532 27.8847 41.7636 27.8847 41.6214 27.8847Z" fill="#5B5BD9"/>
</svg>
