<svg class="transition-transform group-hover:scale-125 group-hover:-rotate-2" xmlns="http://www.w3.org/2000/svg" fill="currentColor" width="16" height="20" viewBox="0 0 16 20"><path fill-rule="evenodd" d="M12.204.022C11.023.195 10.213 1.3 10.37 2.506l.236 1.748A2.124 2.124 0 0 0 9.268 4 2.153 2.153 0 0 0 7.68 5.116a2.108 2.108 0 0 0-1.822-.62 2.11 2.11 0 0 0-1.215.62l-.36-2.61C4.114 1.299 3.034.459 1.854.632.671.804-.139 1.908.02 3.115l1.372 10.016.056.437c.563 4.082 4.264 6.933 8.258 6.358 3.994-.575 6.784-4.346 6.222-8.44l-.056-.437-1.26-9.141C14.465.701 13.374-.15 12.204.022Zm-3.611 8.52-.304-2.184A1.31 1.31 0 0 1 9.39 4.863c.71-.103 1.362.403 1.463 1.127l.596 4.346a1.31 1.31 0 0 1-1.102 1.495c-.71.104-1.362-.402-1.463-1.127l-.292-2.161ZM4.88 6.853a1.31 1.31 0 0 1 1.102-1.494c.71-.104 1.362.402 1.463 1.126l.596 4.347a2.138 2.138 0 0 0-1.339-.253l-1.27.184-.552-3.91ZM.875 2.954A1.31 1.31 0 0 1 1.977 1.46c.709-.104 1.361.39 1.463 1.126l1.136 8.302-1.271.184c-.484.07-.9.3-1.227.587L.875 2.954Zm14.04 7.337.124.873.056.391c.495 3.634-1.957 6.992-5.49 7.497-3.533.506-6.795-2.023-7.29-5.657l-.057-.39c-.033-.288.45-.955 1.16-1.059l3.408-.494c.709-.104 1.361.39 1.463 1.127a1.318 1.318 0 0 1-1.103 1.494l-.427.058.123.874.417-.058c1.181-.172 2.002-1.276 1.834-2.483.393.218.855.322 1.338.253 1.182-.173 1.992-1.277 1.834-2.484L11.98 7.83l-.754-5.44c-.101-.723.383-1.39 1.103-1.482.709-.104 1.361.402 1.462 1.115l1.125 8.268Z" clip-rule="evenodd"></path></svg>