<svg width="45" viewBox="0 0 45 44" fill="none" class="h-full" xmlns="http://www.w3.org/2000/svg"><path d="M45.4999 19.6967H31.6393L43.6428 12.9942L41.261 9.00451L29.2575 15.707L36.1871 4.09924L32.0614 1.79595L25.1318 13.4024V0H20.3682V13.4037L13.4372 1.79595L9.31147 4.09924L16.2411 15.7057L4.23898 9.00451L1.85717 12.9942L13.8607 19.6967H0V24.3033H13.8593L1.85717 31.0045L4.23898 34.9942L16.2425 28.293L9.31147 39.9008L13.4372 42.2041L20.3682 30.5963V44H25.1318V30.3093L32.1896 42.1323L36.0577 39.9725L28.9985 28.1482L41.2596 34.9942L43.6414 31.0045L31.6393 24.3033H45.4986V19.6967H45.4999ZM22.75 28.263C19.1732 28.263 16.2735 25.4589 16.2735 22C16.2735 18.5411 19.1732 15.737 22.75 15.737C26.3267 15.737 29.2265 18.5411 29.2265 22C29.2265 25.4589 26.3267 28.263 22.75 28.263Z" fill="#565ADD"></path></svg>