<svg width="40" height="40" viewBox="0 0 40 40" fill="none" xmlns="http://www.w3.org/2000/svg">
<path d="M0 10C0 4.47715 4.47715 0 10 0H30C35.5229 0 40 4.47715 40 10V30C40 35.5229 35.5229 40 30 40H10C4.47715 40 0 35.5229 0 30V10Z" fill="#FFDD33"/>
<path fill-rule="evenodd" clip-rule="evenodd" d="M26.593 7.625H22.9619L25.9877 12.9415L19.3307 7.625H15.6997L19.0282 14.1231L12.0686 7.625H8.4375L12.0686 15.8964L8.4375 32.4375H12.0686L19.0282 14.7148L15.6997 32.4375H19.3307L25.9877 13.5331L22.9619 32.4375H26.593L33.25 11.7599L26.593 7.625Z" fill="black"/>
</svg>
