<?xml version="1.0" standalone="no"?>
<!DOCTYPE svg PUBLIC "-//W3C//DTD SVG 20010904//EN"
 "http://www.w3.org/TR/2001/REC-SVG-20010904/DTD/svg10.dtd">
<svg version="1.0" xmlns="http://www.w3.org/2000/svg"
 width="48.000000pt" height="48.000000pt" viewBox="0 0 48.000000 48.000000"
 preserveAspectRatio="xMidYMid meet">

<g transform="translate(0.000000,48.000000) scale(0.100000,-0.100000)"
fill="#000000" stroke="none">
<path d="M63 460 c-55 -33 -63 -62 -63 -220 0 -158 8 -187 63 -220 28 -17 51
-20 177 -20 126 0 149 3 177 20 55 33 63 62 63 222 0 124 -3 147 -20 175 -33
55 -62 63 -222 63 -124 0 -147 -3 -175 -20z m87 -197 c0 -82 14 -113 53 -113
43 0 57 27 57 112 0 45 4 78 10 78 6 0 10 -33 10 -79 0 -96 -17 -125 -73 -125
-62 0 -77 24 -77 121 0 49 4 83 10 83 6 0 10 -32 10 -77z m210 -23 c0 -60 -4
-100 -10 -100 -6 0 -10 40 -10 100 0 60 4 100 10 100 6 0 10 -40 10 -100z"/>
</g>
</svg>
