<svg xmlns="http://www.w3.org/2000/svg" width="26" height="26" viewBox="0 0 22 26" fill="none"><path d="M10.701 8.40793H1.60592C0.710313 8.40793 0 7.69462 0 6.82955V1.57838C0 0.698131 0.725755 0 1.60592 0H9.09508C9.99069 0 10.701 0.713307 10.701 1.57838V8.40793Z" class="logo-dots" fill="currentColor"></path><path d="M20.4557 17.5668H10.7109V8.39453H20.4557C21.3987 8.39453 22.1763 9.17128 22.1763 10.1133V15.8481C22.1763 16.8066 21.3987 17.5668 20.4557 17.5668Z" class="logo-dots" fill="currentColor"></path><path d="M9.09508 26H1.60592C0.725755 26 0 25.288 0 24.4244V19.1676C0 18.3041 0.725755 17.592 1.60592 17.592H10.701V24.4244C10.701 25.288 9.97525 26 9.09508 26Z" class="logo-dots" fill="currentColor"></path></svg>