<svg width="22" height="22" viewBox="0 0 22 22" fill="none" xmlns="http://www.w3.org/2000/svg">
<rect width="22" height="22" rx="5" fill="black"/>
<path d="M10.674 6.31818H12.8267V12.9304C12.8267 13.6728 12.6494 14.3224 12.2947 14.8793C11.9434 15.4361 11.4512 15.8703 10.8182 16.1818C10.1851 16.4901 9.44768 16.6442 8.60582 16.6442C7.76065 16.6442 7.02154 16.4901 6.38849 16.1818C5.75545 15.8703 5.26326 15.4361 4.91193 14.8793C4.56061 14.3224 4.38494 13.6728 4.38494 12.9304V6.31818H6.53764V12.7464C6.53764 13.1342 6.62216 13.4789 6.79119 13.7805C6.96354 14.0821 7.20549 14.3191 7.51705 14.4915C7.8286 14.6638 8.19152 14.75 8.60582 14.75C9.02344 14.75 9.38636 14.6638 9.6946 14.4915C10.0062 14.3191 10.2464 14.0821 10.4155 13.7805C10.5878 13.4789 10.674 13.1342 10.674 12.7464V6.31818ZM16.7505 6.31818V16.5H14.5978V6.31818H16.7505Z" fill="white"/>
</svg>
