<svg width="66" height="48" viewBox="0 0 66 48" fill="none" xmlns="http://www.w3.org/2000/svg">
<g clip-path="url(#clip0_1444_28)">
<path fill-rule="evenodd" clip-rule="evenodd" d="M51.2703 23.6098H51.2012L51.2566 23.5891L51.2703 23.6098Z" fill="#1A1A1A"/>
<path d="M17.4491 17.0376V16.8434C10.4571 19.3009 5.00323 21.907 2.16393 24.1531C1.3408 24.8042 0.737422 25.4251 0.380006 26.0033C0.0482737 26.5399 -0.0715716 27.0399 0.0414406 27.4931C0.154453 27.9464 0.494969 28.3315 1.03982 28.6497C2.14859 29.297 4.10357 29.6668 6.7095 29.7682C6.58689 29.2091 6.52228 28.6284 6.52228 28.0326C6.52228 27.0628 6.69343 26.133 7.00718 25.2718C6.68375 25.0555 6.4717 24.8031 6.38124 24.5142L6.37902 24.507L6.37709 24.5006C6.37236 24.4848 6.36798 24.4688 6.36398 24.4527C5.90463 22.6104 10.3591 19.7814 17.4491 17.0376Z" fill="#1A1A1A"/>
<path d="M11.1333 26.2144C10.8469 26.7574 10.6848 27.376 10.6848 28.0326C10.6848 28.6373 10.8224 29.21 11.0679 29.7209C11.6974 31.0308 13.0367 31.935 14.5872 31.935C16.4024 31.935 17.9281 30.6957 18.3644 29.0171C18.4462 28.7026 18.4897 28.3727 18.4897 28.0326C18.4897 27.2811 18.2773 26.5793 17.9092 25.9838C17.2217 24.8713 15.991 24.1301 14.5872 24.1301C13.0885 24.1301 11.7871 24.975 11.1333 26.2144Z" fill="#1A1A1A"/>
<path fill-rule="evenodd" clip-rule="evenodd" d="M25.2541 8H17.4492V16.8434V17.0376V20.49C19.6922 21.3415 21.4567 23.1648 22.2286 25.4457C22.5035 26.2577 22.6525 27.1277 22.6525 28.0326C22.6525 28.1438 22.6502 28.2546 22.6457 28.3648C23.5009 28.2199 24.3709 28.0643 25.2541 27.8979C27.7623 27.4254 30.377 26.8664 33.059 26.2227C33.5479 26.1054 34.039 25.9853 34.5321 25.8623C34.9509 25.7579 35.3674 25.6524 35.7816 25.5458C37.5204 25.0985 39.2177 24.6327 40.8638 24.1531C41.479 23.9738 42.0871 23.7927 42.6875 23.6098C44.7816 22.972 46.7825 22.3136 48.6687 21.6448C49.02 21.5203 49.3674 21.3953 49.7106 21.2701C52.1992 20.3622 54.4713 19.4388 56.4736 18.525C61.1507 16.3906 64.3561 14.3089 65.4126 12.5998C65.7443 12.0631 65.8641 11.5632 65.7511 11.1099C65.6381 10.6566 65.2976 10.2715 64.7527 9.95336C64.1657 9.61056 63.3415 9.34567 62.309 9.15719C60.786 8.87915 58.8098 8.76745 56.4736 8.81769V8H48.6687V18.4092C48.4436 18.4998 48.2155 18.5904 47.9845 18.681L40.8638 8H33.059V21.0082L25.2541 8ZM58.7533 11.4477L58.7522 11.4421C58.7489 11.4259 58.7453 11.4097 58.7413 11.3936C58.575 10.7267 57.7793 10.2479 56.4736 9.95136V14.4609C58.0826 13.3274 58.9118 12.2934 58.7549 11.456L58.7533 11.4477Z" fill="#1A1A1A"/>
<path d="M27.8556 39.2196H33.0589V29.0261C30.3727 29.6595 27.7577 30.2071 25.254 30.667C24.3113 30.8402 23.3844 31.0009 22.4753 31.1491L27.8556 39.2196Z" fill="#1A1A1A"/>
<path d="M43.9857 39.2196H48.6686L56.4735 23.6098V21.4685C54.8836 22.1751 53.1364 22.8858 51.2565 23.5891L51.2702 23.6098H51.2011C50.3814 23.916 49.5366 24.2207 48.6686 24.5231C46.234 25.3712 43.6176 26.2006 40.8637 26.9902C39.6814 27.3292 38.4736 27.6609 37.2441 27.9836L43.9857 39.2196Z" fill="#1A1A1A"/>
</g>
<defs>
<clipPath id="clip0_1444_28">
<rect width="65.7926" height="47.2196" fill="white"/>
</clipPath>
</defs>
</svg>
