<svg width="95" height="95" viewBox="0 0 95 95" fill="none" xmlns="http://www.w3.org/2000/svg">
<mask id="mask0_1448_60" style="mask-type:luminance" maskUnits="userSpaceOnUse" x="10" y="32" width="75" height="31">
<path d="M10 32.9815H85V62.0185H10V32.9815Z" fill="white"/>
</mask>
<g mask="url(#mask0_1448_60)">
<path d="M85 32.9815H80.858C79.708 32.9815 78.634 33.5515 77.988 34.5015L72.448 42.6755C72.4139 42.7256 72.368 42.7666 72.3144 42.795C72.2608 42.8233 72.2011 42.8382 72.1405 42.8382C72.0799 42.8382 72.0202 42.8233 71.9666 42.795C71.913 42.7666 71.8671 42.7256 71.833 42.6755L66.293 34.5025C65.9757 34.0336 65.5482 33.6497 65.048 33.3845C64.5478 33.1193 63.9902 32.981 63.424 32.9815H59.281L69.151 47.5415L59.336 62.0185H63.479C64.628 62.0185 65.702 61.4495 66.347 60.4985L71.833 52.4055C71.8671 52.3552 71.913 52.314 71.9667 52.2855C72.0204 52.257 72.0802 52.2421 72.141 52.2421C72.2018 52.2421 72.2616 52.257 72.3153 52.2855C72.369 52.314 72.4149 52.3552 72.449 52.4055L77.934 60.4985C78.2515 60.9674 78.6792 61.3511 79.1796 61.6162C79.68 61.8812 80.2378 62.0193 80.804 62.0185H84.946L75.131 47.5415L85 32.9815ZM50.758 35.9515V62.0185H52.738C53.5257 62.0185 54.2811 61.7056 54.8381 61.1486C55.3951 60.5916 55.708 59.8362 55.708 59.0485V32.9815H53.728C52.9403 32.9815 52.1849 33.2944 51.6279 33.8514C51.0709 34.4084 50.758 35.1638 50.758 35.9515ZM47.126 32.9815H45.364C44.4221 32.9807 43.5079 33.3003 42.7717 33.8878C42.0356 34.4754 41.5211 35.2959 41.313 36.2145L37.371 53.5425L33.921 37.3675C33.283 34.3775 30.215 32.3615 27.076 33.2285C25.077 33.7805 23.595 35.4695 23.162 37.4985L19.747 53.5215L15.813 36.2155C15.6033 35.2972 15.0882 34.4773 14.352 33.8898C13.6157 33.3023 12.7019 32.9821 11.76 32.9815H10L16.604 62.0175H19.106C20.2079 62.0178 21.2766 61.6398 22.1332 60.9467C22.9898 60.2535 23.5825 59.2873 23.812 58.2095L28.033 38.3995C28.0593 38.28 28.1253 38.173 28.2203 38.096C28.3153 38.019 28.4337 37.9765 28.556 37.9755C28.806 37.9755 29.027 38.1535 29.079 38.3985L33.305 58.2105C33.5348 59.2881 34.1275 60.2541 34.9841 60.9471C35.8407 61.64 36.9092 62.0179 38.011 62.0175H40.521L47.126 32.9815Z" fill="black"/>
</g>
</svg>
