<svg width="228" height="225" viewBox="0 0 228 225" fill="none" xmlns="http://www.w3.org/2000/svg">
<path fill-rule="evenodd" clip-rule="evenodd" d="M46.0556 112.5L0 85.888L33.9456 27.1121L80.028 53.6781L80.054 0.5H147.946L147.972 53.6781L194.054 27.1121L228 85.888L181.944 112.5L228 139.112L194.054 197.888L147.972 171.322L147.946 224.5H80.054L80.028 171.322L33.9456 197.888L0 139.112L46.0556 112.5Z" fill="black"/>
<path fill-rule="evenodd" clip-rule="evenodd" d="M114 179.5C113.866 142.542 83.9207 112.624 47 112.624C84.0031 112.624 114 82.5713 114 45.5C114.133 82.4576 144.079 112.376 181 112.376C143.996 112.376 114 142.429 114 179.5Z" fill="white"/>
</svg>
